<svg width="100" height="100" viewBox="0 0 100 100" fill="none" xmlns="http://www.w3.org/2000/svg">
<rect width="100" height="100" fill="#F5F5F5"/>
<g clip-path="url(#clip0_0_1)">
<rect width="1440" height="1240" transform="translate(-902 -900)" fill="white"/>
<circle cx="50" cy="50" r="49" stroke="#CCCF28" stroke-width="2"/>
<path d="M52 26C38.7453 26 28 36.7453 28 50C28 61.255 35.7491 70.6995 46.2026 73.2934V57.3344H41.2538V50H46.2026V46.8397C46.2026 38.671 49.8995 34.8848 57.9194 34.8848C59.44 34.8848 62.0637 35.1834 63.137 35.481V42.129C62.5706 42.0694 61.5866 42.0397 60.3645 42.0397C56.4294 42.0397 54.9088 43.5306 54.9088 47.4061V50H62.7482L61.4013 57.3344H54.9088V73.8243C66.7926 72.3891 76.001 62.2707 76.001 50C76 36.7453 65.2547 26 52 26Z" fill="#CCCF28"/>
</g>
<defs>
<clipPath id="clip0_0_1">
<rect width="1440" height="1240" fill="white" transform="translate(-902 -900)"/>
</clipPath>
</defs>
</svg>
