<svg width="62" height="62" viewBox="0 0 62 62" fill="none" xmlns="http://www.w3.org/2000/svg">
<path d="M60.7107 24.8306C60.0976 17.4012 58.3058 10.6265 55.308 6.9883C47.7363 -2.20203 16.9398 -0.495595 7.67831 6.9883C4.12551 9.85924 2.06095 16.296 1.33876 23.6151C-0.346328 35.7973 1.44075 50.5066 7.36644 55.2951C10.1212 57.5209 14.6428 59.0874 19.8712 59.997C31.3348 62.3983 46.6014 61.4212 53.3869 56.4133C53.9703 56.0599 54.5158 55.6899 54.9961 55.2951C60.7368 50.5647 62.2262 36.7745 60.7107 24.8306Z" fill="#001533"/>
<path d="M60.7107 24.8306C60.0976 17.4012 58.3058 10.6265 55.308 6.9883C47.7363 -2.20203 16.9398 -0.495595 7.67831 6.9883C4.12551 9.85924 2.06095 16.296 1.33876 23.6151C-0.346328 35.7973 1.44075 50.5066 7.36644 55.2951C10.1212 57.5209 14.6428 59.0874 19.8712 59.997C31.3348 62.3983 46.6014 61.4212 53.3869 56.4133C53.9703 56.0599 54.5158 55.6899 54.9961 55.2951C60.7368 50.5647 62.2262 36.7745 60.7107 24.8306Z" fill="#001533"/>
<path d="M32.5503 61.9857C28.082 61.9857 23.6149 61.5469 19.7182 60.7298C14.0427 59.742 9.59932 58.0617 6.89559 55.8773C0.601097 50.7901 -1.04842 35.406 0.596354 23.5131C1.40747 15.2798 3.75783 9.19283 7.20746 6.4049C16.9978 -1.50709 48.2331 -2.77832 55.8866 6.51044C58.7978 10.0455 60.7758 16.5226 61.4565 24.7512C62.9021 36.1768 61.6463 50.7829 55.4739 55.8714C55.0008 56.2592 54.447 56.6458 53.7746 57.0525C49.1474 60.4701 40.8488 61.9833 32.5503 61.9857ZM33.4871 1.50022C23.4832 1.50022 12.9316 3.7059 8.14903 7.57059C5.0587 10.068 2.84828 15.9439 2.08341 23.6898C0.491997 35.2056 1.96957 49.9718 7.83715 54.7128C10.3428 56.7383 14.5479 58.3095 19.9992 59.2594C30.8355 61.5244 46.1045 60.8555 52.9409 55.8098C53.6062 55.403 54.1043 55.0579 54.5205 54.7164C60.2588 49.9872 61.3664 35.9574 59.9671 24.9243L59.9647 24.8911C59.3196 17.0704 57.4116 10.719 54.7304 7.46267C51.34 3.34778 42.643 1.50022 33.4871 1.50022Z" fill="#CCCF28"/>
<mask id="mask0_10_227" style="mask-type:luminance" maskUnits="userSpaceOnUse" x="4" y="4" width="54" height="54">
<path d="M57.4614 25.6109C56.9218 19.0698 55.3435 13.1049 52.7038 9.90077C46.0369 1.80853 18.9201 3.311 10.7662 9.90077C7.63792 12.4278 5.82001 18.0962 5.18439 24.5413C3.7009 35.2673 5.27452 48.2191 10.4923 52.4348C12.9173 54.395 16.8994 55.773 21.5029 56.5746C31.5968 58.689 45.0396 57.8292 51.0139 53.4191C51.5274 53.1072 52.0089 52.7823 52.431 52.4336C57.4851 48.2701 58.7955 36.1282 57.4614 25.6109Z" fill="white"/>
</mask>
<g mask="url(#mask0_10_227)">
<path d="M54.4587 16.7846C54.1931 15.1814 53.5492 13.75 52.2092 12.735C51.2439 12.0045 50.1909 11.7021 48.9979 12.1432C48.2034 12.4409 47.8678 12.8784 48.3196 13.7394C48.8058 14.6643 49.0501 15.6581 48.8698 17.0408C46.9487 12.1788 43.4137 9.96836 38.6893 9.52723C33.8558 9.0766 30.1512 11.1056 27.3087 14.994C27.4083 13.5235 28.1542 12.3994 29.0946 11.3855C30.2437 10.1427 30.2188 9.8901 28.7377 9.09795C28.4791 8.9592 28.21 8.83943 27.9336 8.73627C23.4701 7.05355 18.5097 9.37188 16.6657 14.0216C15.6435 16.6032 15.3411 19.3081 15.5984 22.0486C15.9234 25.4769 17.4863 28.1249 20.7699 29.5515C20.9194 29.6179 21.1423 29.6475 21.1186 29.9155C20.7367 30.0863 20.4035 29.8847 20.0691 29.7637C17.6689 28.8898 16.0645 27.2308 15.2024 24.833C14.0628 21.6561 14.332 18.4626 15.0541 15.2573C15.1561 14.8102 15.4656 14.2694 14.9877 13.9255C14.5703 13.6231 14.1683 14.0667 13.7782 14.235C13.5766 14.3216 13.3916 14.4473 13.2018 14.56C10.4471 16.1846 8.11574 18.1827 6.17924 20.5177C5.44402 22.3723 0.852408 35.4511 9.79134 52.8831C9.83759 52.9744 9.88384 53.0645 9.9289 53.1546C10.0285 53.3515 10.2301 53.4748 10.4507 53.4724C10.4566 53.4724 10.4613 53.4724 10.4673 53.4724C11.8168 53.4594 11.9223 53.3183 11.7646 51.9925C11.429 49.2307 11.8583 46.7001 14.0343 44.7221C15.1893 43.6714 15.6459 43.6358 16.9408 44.4707C18.2227 45.2972 18.8666 45.5106 19.8106 45.4205C18.097 44.728 16.6052 43.8267 16.1036 41.9045C15.1822 38.3718 18.1243 34.985 21.9404 35.1772C23.2448 35.2412 23.393 35.4025 23.2578 36.7377C23.6195 36.4484 23.9207 36.1946 24.2338 35.9563C26.3956 34.3115 29.2891 34.2866 31.3062 35.8898C33.8546 37.9141 35.025 42.5733 33.7301 45.5699C33.1668 46.8708 32.2371 47.7495 30.8046 47.9926C29.8393 48.1563 29.0531 47.7958 28.5064 47.006C28.1708 46.5234 28.2123 45.736 28.778 45.7632C29.5986 45.7988 30.5129 44.958 31.3121 45.5367C31.5185 45.6861 31.7983 45.481 31.726 45.2367C31.5197 44.5371 31.0773 44.2382 30.2947 44.1208C28.7732 43.8979 27.1593 44.7813 26.379 46.2648C25.6687 47.6203 25.894 48.9603 27.0502 50.2078C27.872 51.096 28.861 51.7162 30.0421 51.9854C32.5703 52.5581 35.012 52.27 37.3683 51.1968C41.3646 49.373 44.1347 46.317 46.0606 42.4488C48.137 38.2805 49.1758 33.8146 49.6774 29.21C49.7106 28.9159 49.5707 28.5411 49.9561 28.3467C50.0154 28.4131 50.0972 28.4641 50.0996 28.5186C50.1387 29.1768 50.1612 29.8373 50.1992 30.4978C50.2585 31.533 50.7577 31.8046 51.6281 31.2378C52.6064 30.5974 53.0654 29.5728 53.4389 28.5328C54.8169 24.7097 55.1192 20.7809 54.4587 16.7846ZM35.6381 31.4737C34.9646 29.2277 31.5956 29.9013 31.5956 29.9013C31.5956 29.9013 32.9486 28.7415 34.5151 29.0024C35.8634 29.2277 35.6381 31.4737 35.6381 31.4737ZM45.5198 30.5749C45.5198 30.5749 45.2957 29.2277 46.4187 28.7783C47.5417 28.3289 48.2152 29.6772 48.2152 29.6772C48.2152 29.6772 46.8681 28.7783 45.5198 30.5749Z" fill="#CCCF28"/>
<path d="M27.0122 40.1351C27.1272 40.1197 27.2399 40.1162 27.3502 40.1268C27.4604 40.1375 27.5672 40.1648 27.6727 40.2075C27.7261 40.2276 27.7759 40.2561 27.8292 40.2834C27.8779 40.3166 27.9324 40.3462 27.9799 40.3865C28.083 40.4589 28.1743 40.5526 28.2787 40.6463C28.2514 40.5111 28.2052 40.3771 28.1281 40.2561C28.0937 40.1933 28.0451 40.1375 27.9988 40.0806C27.9466 40.0284 27.8933 39.9751 27.8304 39.9336C27.7071 39.8446 27.5612 39.783 27.4118 39.7497C27.2612 39.7189 27.1082 39.7177 26.9612 39.7355C26.6671 39.7735 26.4003 39.8897 26.1667 40.0391C25.9354 40.1921 25.7279 40.3782 25.575 40.6095C25.8311 40.5087 26.0706 40.4067 26.309 40.3201C26.5462 40.2348 26.7821 40.1636 27.0122 40.1351Z" fill="#CCCF28"/>
</g>
</svg>
