<svg width="169" height="66" viewBox="0 0 169 66" fill="none" xmlns="http://www.w3.org/2000/svg">
<path d="M0.585 9.523V6.8125H8.58V9.523H6.201V16.2895H8.58V19H0.585V16.2895H2.964V9.523H0.585ZM13.4302 12.175V19H10.1932V8.821H13.0402L13.2742 10.03C14.4052 9.0355 15.7312 8.5285 17.0182 8.5285C18.5782 8.5285 19.9042 9.0355 20.9182 10.0495V19H17.6812V12.0775C17.1547 11.668 16.4722 11.4535 15.6922 11.4535C14.8537 11.4535 14.0347 11.746 13.4302 12.175ZM31.376 18.844C30.6545 19.117 29.7575 19.2925 28.763 19.2925C26.7935 19.2925 25.253 18.7465 24.161 17.7715V11.3365H22.3085V9.016L24.161 8.821V6.8125H27.3785V8.821H31.22V11.3365H27.3785V16.2115C27.866 16.543 28.5485 16.7185 29.465 16.7185C30.1085 16.7185 30.713 16.6405 31.376 16.426V18.844ZM37.903 8.5285C40.009 8.5285 41.7055 9.1525 42.9925 10.0495V14.6125H35.875V15.958C36.772 16.387 37.708 16.543 38.9755 16.543C40.3405 16.543 41.6665 16.348 42.973 15.997V18.6685C41.569 19.078 40.243 19.2925 38.6245 19.2925C36.4405 19.2925 34.2175 18.7465 32.794 17.7715V10.0495C34.354 9.055 35.914 8.5285 37.903 8.5285ZM35.875 11.8435V13.189H39.97V11.8435C39.385 11.4535 38.683 11.278 37.9225 11.278C37.1815 11.278 36.46 11.4535 35.875 11.8435ZM48.1455 12.175V19H44.9085V8.821H47.7555L47.97 9.991C48.9255 9.0355 50.1345 8.5285 51.5385 8.5285V11.3755C50.2515 11.3755 49.14 11.6485 48.1455 12.175ZM56.007 11.9605V15.8605C56.709 16.231 57.606 16.426 58.62 16.426C59.8485 16.426 60.8625 16.231 61.857 15.841V18.649C60.5895 19.117 59.361 19.2925 58.0545 19.2925C56.1435 19.2925 54.2325 18.688 52.77 17.7715V10.03C54.2325 9.133 56.1435 8.5285 58.0545 8.5285C59.6145 8.5285 60.7455 8.7625 61.857 9.172V11.9605C60.8625 11.59 59.8485 11.3755 58.62 11.3755C57.606 11.3755 56.709 11.59 56.007 11.9605ZM73.9442 17.7715C72.3257 18.7855 70.6487 19.2925 68.6987 19.2925C66.7487 19.2925 65.0717 18.766 63.4532 17.7715V10.0495C65.0717 9.0355 66.7487 8.5285 68.6987 8.5285C70.6487 8.5285 72.3257 9.0355 73.9442 10.0495V17.7715ZM68.6987 16.465C69.5762 16.465 70.2782 16.231 70.8242 15.8605V11.9605C70.2782 11.59 69.5762 11.3365 68.6987 11.3365C67.8212 11.3365 67.0997 11.59 66.5732 11.9605V15.8605C67.0997 16.2115 67.8212 16.465 68.6987 16.465ZM79.1094 12.175V19H75.8724V8.821H78.7194L78.9534 10.03C80.0844 9.0355 81.4104 8.5285 82.6974 8.5285C84.2574 8.5285 85.5834 9.0355 86.5974 10.0495V19H83.3604V12.0775C82.8339 11.668 82.1514 11.4535 81.3714 11.4535C80.5329 11.4535 79.7139 11.746 79.1094 12.175ZM97.0552 18.844C96.3337 19.117 95.4367 19.2925 94.4422 19.2925C92.4727 19.2925 90.9322 18.7465 89.8402 17.7715V11.3365H87.9877V9.016L89.8402 8.821V6.8125H93.0577V8.821H96.8992V11.3365H93.0577V16.2115C93.5452 16.543 94.2277 16.7185 95.1442 16.7185C95.7877 16.7185 96.3922 16.6405 97.0552 16.426V18.844ZM98.5512 5.077H101.905V7.534H98.5512V5.077ZM101.847 19H98.6097V8.821H101.847V19ZM107.16 12.175V19H103.923V8.821H106.77L107.004 10.03C108.135 9.0355 109.461 8.5285 110.748 8.5285C112.308 8.5285 113.634 9.0355 114.648 10.0495V19H111.411V12.0775C110.884 11.668 110.202 11.4535 109.422 11.4535C108.583 11.4535 107.764 11.746 107.16 12.175ZM121.654 8.5285C123.76 8.5285 125.456 9.1525 126.743 10.0495V14.6125H119.626V15.958C120.523 16.387 121.459 16.543 122.726 16.543C124.091 16.543 125.417 16.348 126.724 15.997V18.6685C125.32 19.078 123.994 19.2925 122.375 19.2925C120.191 19.2925 117.968 18.7465 116.545 17.7715V10.0495C118.105 9.055 119.665 8.5285 121.654 8.5285ZM119.626 11.8435V13.189H123.721V11.8435C123.136 11.4535 122.434 11.278 121.673 11.278C120.932 11.278 120.211 11.4535 119.626 11.8435ZM131.896 12.175V19H128.659V8.821H131.506L131.74 10.03C132.871 9.0355 134.197 8.5285 135.484 8.5285C137.044 8.5285 138.37 9.0355 139.384 10.0495V19H136.147V12.0775C135.621 11.668 134.938 11.4535 134.158 11.4535C133.32 11.4535 132.501 11.746 131.896 12.175ZM149.842 18.844C149.121 19.117 148.224 19.2925 147.229 19.2925C145.26 19.2925 143.719 18.7465 142.627 17.7715V11.3365H140.775V9.016L142.627 8.821V6.8125H145.845V8.821H149.686V11.3365H145.845V16.2115C146.332 16.543 147.015 16.7185 147.931 16.7185C148.575 16.7185 149.179 16.6405 149.842 16.426V18.844ZM158.963 19L158.768 17.8495C157.793 18.805 156.642 19.2925 155.277 19.2925C153.756 19.2925 152.43 18.8245 151.26 17.7715V10.0495C152.859 9.0355 154.556 8.5285 156.525 8.5285C158.495 8.5285 160.191 9.0355 161.81 10.0495V19H158.963ZM156.389 16.504C157.208 16.504 158.027 16.231 158.631 15.763V11.9995C158.085 11.629 157.344 11.3755 156.525 11.3755C155.726 11.3755 154.985 11.629 154.439 11.9995V15.88C154.946 16.2895 155.648 16.504 156.389 16.504ZM167.088 19H163.851V5.6425H167.088V19Z" fill="white"/>
<path d="M24.209 50.5588C20.081 52.9238 15.91 53.9128 11.696 53.9128C7.869 53.9128 4.773 53.3108 1.935 52.2358V45.9578C4.816 47.0328 8.342 47.5918 11.223 47.5918C13.459 47.5918 15.652 47.2478 17.415 46.4308V43.6358L1.935 40.5398V29.1018C6.106 26.7368 10.234 25.7478 14.448 25.7478C18.275 25.7478 21.371 26.3498 24.209 27.4248V33.7028C21.457 32.7138 18.06 32.0688 15.308 32.0688C12.9 32.0688 10.879 32.3698 8.772 33.2298V35.8958L24.209 38.9918V50.5588ZM35.3191 37.7448V46.3448C36.8671 47.1618 38.8451 47.5918 41.0811 47.5918C43.7901 47.5918 46.0261 47.1618 48.2191 46.3018V52.4938C45.4241 53.5258 42.7151 53.9128 39.8341 53.9128C35.6201 53.9128 31.4061 52.5798 28.1811 50.5588V33.4878C31.4061 31.5098 35.6201 30.1768 39.8341 30.1768C43.2741 30.1768 45.7681 30.6928 48.2191 31.5958V37.7448C46.0261 36.9278 43.7901 36.4548 41.0811 36.4548C38.8451 36.4548 36.8671 36.9278 35.3191 37.7448ZM59.1777 38.2178V53.2678H52.0397V23.8128H59.1777V33.1868C61.6287 31.1658 64.3807 30.1768 67.0897 30.1768C70.5727 30.1768 73.5827 31.2948 75.8187 33.5308V53.2678H68.5517V38.0028C67.3907 37.0998 65.8857 36.6268 64.1657 36.6268C62.3167 36.6268 60.5107 37.2718 59.1777 38.2178ZM103.133 50.5588C99.5645 52.7948 95.8665 53.9128 91.5665 53.9128C87.2665 53.9128 83.5685 52.7518 79.9995 50.5588V33.5308C83.5685 31.2948 87.2665 30.1768 91.5665 30.1768C95.8665 30.1768 99.5645 31.2948 103.133 33.5308V50.5588ZM91.5665 47.6778C93.5015 47.6778 95.0495 47.1618 96.2535 46.3448V37.7448C95.0495 36.9278 93.5015 36.3688 91.5665 36.3688C89.6315 36.3688 88.0405 36.9278 86.8795 37.7448V46.3448C88.0405 47.1188 89.6315 47.6778 91.5665 47.6778ZM130.218 50.5588C126.649 52.7948 122.951 53.9128 118.651 53.9128C114.351 53.9128 110.653 52.7518 107.084 50.5588V33.5308C110.653 31.2948 114.351 30.1768 118.651 30.1768C122.951 30.1768 126.649 31.2948 130.218 33.5308V50.5588ZM118.651 47.6778C120.586 47.6778 122.134 47.1618 123.338 46.3448V37.7448C122.134 36.9278 120.586 36.3688 118.651 36.3688C116.716 36.3688 115.125 36.9278 113.964 37.7448V46.3448C115.125 47.1188 116.716 47.6778 118.651 47.6778ZM141.608 53.2678H134.47V23.8128H141.608V53.2678ZM145.799 42.7328V33.5308C149.325 31.2948 153.324 30.1768 157.581 30.1768C161.236 30.1768 164.203 30.6928 167.084 31.5958V37.5728C163.859 36.6698 161.021 36.2398 157.882 36.2398C155.474 36.2398 153.496 36.6698 152.12 37.4008V39.8948L167.084 41.2708V50.6018C163.558 52.7948 159.516 53.9128 155.259 53.9128C151.647 53.9128 148.637 53.3968 145.799 52.4938V46.5168C148.852 47.4198 151.604 47.8928 154.657 47.8928C157.194 47.8928 159.301 47.4628 160.763 46.7318V44.1088L145.799 42.7328Z" fill="white"/>
</svg>
